<?xml version="1.0" encoding="UTF-8"?>
<!DOCTYPE svg PUBLIC "-//W3C//DTD SVG 1.1//EN" "http://www.w3.org/Graphics/SVG/1.1/DTD/svg11.dtd">
<!-- Creator: CorelDRAW 2019 (64 Bit) -->
<svg xmlns="http://www.w3.org/2000/svg" xml:space="preserve" width="594mm" height="841mm" version="1.1" style="shape-rendering:geometricPrecision; text-rendering:geometricPrecision; image-rendering:optimizeQuality; fill-rule:evenodd; clip-rule:evenodd"
viewBox="0 0 59400 84100"
 xmlns:xlink="http://www.w3.org/1999/xlink">
 <defs>
  <style type="text/css">
   <![CDATA[
    .str0 {stroke:#D2D3D5;stroke-width:75;stroke-miterlimit:22.9256}
    .fil1 {fill:none}
    .fil2 {fill:#DEE2EA}
    .fil0 {fill:#F8F9FC}
   ]]>
  </style>
   <clipPath id="id0">
    <rect x="4920.69" y="19229.6" width="26670" height="25117.78"/>
   </clipPath>
 </defs>
 <g id="Camada_x0020_1">
  <metadata id="CorelCorpID_0Corel-Layer"/>
  <g style="clip-path:url(#id0)">
   <image x="4920.69" y="19229.6" width="26670" height="25117.78" xlink:href="frente_aeronave_Images\frente_aeronave_ImgID1.png"/>
  </g>
  <g id="_2114413767648">
   <path class="fil0" d="M52895.87 25389.59l0 -3784.47c0,-949.9 -12.24,-1458.52 -160.22,-2401.55 -275.74,-1757.07 -710.59,-3004.76 -1287.82,-4532.71 -57.68,-152.68 -121.49,-303.56 -190.46,-451.66 -64.74,-139.05 -131.88,-296.24 -200.61,-438.66 -354.03,-733.64 -490.02,-997.07 -902.2,-1676.8l-666.59 -951.51c-218.85,-287.6 -683.2,-777.32 -951.13,-985.89 -455.91,-354.89 -961.69,-661.14 -1582.15,-661.59 -564.01,-0.42 -1007.42,251.19 -1420.66,539.23 -160.98,112.21 -215.43,171.9 -346.73,291.83 -60.42,55.19 -118.82,103.48 -180.88,157.97 -112.42,98.66 -282.86,316.04 -380.59,418.78 -131.54,138.32 -240.84,288.72 -357.91,441.06 -568.24,739.47 -1255.63,2010.08 -1628.28,2889.6 -123.15,290.66 -249.75,607.51 -371.26,911.14 -126.57,316.28 -216.21,634.16 -337.34,957.12 -274.34,731.53 -653.03,2415.34 -760.29,3104.43 -129.34,830.91 -157.05,1550.17 -157.05,2406.99l0 3766.69 11882.17 0z"/>
   <path class="fil1 str0" d="M52895.87 25389.59l0 -3784.47c0,-949.9 -12.24,-1458.52 -160.22,-2401.55 -275.74,-1757.07 -710.59,-3004.76 -1287.82,-4532.71 -57.68,-152.68 -121.49,-303.56 -190.46,-451.66 -64.74,-139.05 -131.88,-296.24 -200.61,-438.66 -354.03,-733.64 -490.02,-997.07 -902.2,-1676.8l-666.59 -951.51c-218.85,-287.6 -683.2,-777.32 -951.13,-985.89 -455.91,-354.89 -961.69,-661.14 -1582.15,-661.59 -564.01,-0.42 -1007.42,251.19 -1420.66,539.23 -160.98,112.21 -215.43,171.9 -346.73,291.83 -60.42,55.19 -118.82,103.48 -180.88,157.97 -112.42,98.66 -282.86,316.04 -380.59,418.78 -131.54,138.32 -240.84,288.72 -357.91,441.06 -568.24,739.47 -1255.63,2010.08 -1628.28,2889.6 -123.15,290.66 -249.75,607.51 -371.26,911.14 -126.57,316.28 -216.21,634.16 -337.34,957.12 -274.34,731.53 -653.03,2415.34 -760.29,3104.43 -129.34,830.91 -157.05,1550.17 -157.05,2406.99l0 3766.69"/>
   <path class="fil2" d="M47099 10895.46c-18.84,250.79 -9.31,527.13 -8.97,781.59 0,119.91 34.73,134.24 111.01,180.99 66.68,40.86 127.9,74.12 190.53,112.34l749.46 442.57c106.78,63.76 271.45,201.12 415.89,187.1 101.98,-99.44 70.43,-168.92 72.66,-335.87 1.65,-123.48 15.29,-311.81 3.04,-427.91 -17.81,-168.73 -271.36,-274.72 -467.54,-391.5 -186.12,-110.8 -345.48,-205.37 -522.67,-313.69 -161.21,-98.55 -457.3,-325.99 -543.41,-235.62z"/>
   <path class="fil2" d="M45273.26 11872.76c0,852.04 -36.43,851.58 483.38,545.5l949.89 -561.88c93.45,-55.19 108.57,-65.3 108.57,-197.14l-4.88 -760.89 -51.02 -34.4c-75.88,-23.4 -1042.57,596.79 -1182.58,679.97 -137.23,81.52 -303.36,133.41 -303.36,328.84z"/>
   <path class="fil2" d="M44446.7 13184.47c589.76,0 561.6,58.58 716.19,-222.46 60.55,-110.09 21.14,-266.49 1.34,-397.64 -88.11,-583.51 -66.58,-720.94 -245.72,-468.54 -130.94,184.5 -259,362.45 -390.41,552.46 -124.88,180.56 -449.17,536.18 -81.4,536.18z"/>
   <path class="fil2" d="M49000.2 13184.47c201.53,0 570.84,41.67 621.04,-66.25 27.19,-143.35 -77.63,-235.37 -138.53,-322.24l-490.51 -701.05c-47.92,-67.86 -51.68,-109.26 -135.03,-114.6 -44.52,81.5 -105.89,538.63 -122.81,674.67 -18.72,150.43 -31.43,221.89 40.63,348.85 62.59,110.28 76.05,180.62 225.21,180.62z"/>
  </g>
 </g>
</svg>
